<svg xmlns="http://www.w3.org/2000/svg" viewBox="0 0 100 125" aria-hidden="true" focusable="false"><path fill="#0ea5da" d="M89 25H11a4 4 0 00-4 4v42a4 4 0 004 4h78a4 4 0 004-4V29a4 4 0 00-4-4zM45.466 66.245H13.515a.506.506 0 01-.506-.516c.234-6.828 5.101-12.534 11.715-14.425a.19.19 0 00.051-.347 8.663 8.663 0 01-3.963-7.278 8.68 8.68 0 019.669-8.624c4.012.444 7.254 3.735 7.647 7.753a8.664 8.664 0 01-3.92 8.149.19.19 0 00.051.347c6.614 1.891 11.48 7.597 11.715 14.425a.508.508 0 01-.508.516zM84 61a1 1 0 01-1 1H55a1 1 0 01-1-1v-2a1 1 0 011-1h28a1 1 0 011 1v2zm0-8a1 1 0 01-1 1H55a1 1 0 01-1-1v-2a1 1 0 011-1h28a1 1 0 011 1v2zm0-13a1 1 0 01-1 1H55a1 1 0 01-1-1v-4a1 1 0 011-1h28a1 1 0 011 1v4z"/></svg>